<svg id="_04" data-name="04" xmlns="http://www.w3.org/2000/svg" width="200" height="200" viewBox="0 0 200 200">
  <path id="Trazado_2453" data-name="Trazado 2453" d="M225.561,34H38.219A4.232,4.232,0,0,0,34,38.219V225.561a4.232,4.232,0,0,0,4.219,4.219H225.561a4.232,4.232,0,0,0,4.219-4.219V38.219A4.232,4.232,0,0,0,225.561,34Z" transform="translate(-29.781 -29.781)" opacity="0.05"/>
  <path id="Trazado_2454" data-name="Trazado 2454" d="M28.219,24H215.561a4.232,4.232,0,0,1,4.219,4.219V215.561a4.232,4.232,0,0,1-4.219,4.219H28.219A4.232,4.232,0,0,1,24,215.561V28.219A4.232,4.232,0,0,1,28.219,24Z" transform="translate(-24 -24)" fill="#fff"/>
  <path id="Trazado_2455" data-name="Trazado 2455" d="M28.219,24H215.561a4.232,4.232,0,0,1,4.219,4.219V51H24V28.219A4.232,4.232,0,0,1,28.219,24Z" transform="translate(-24 -24)" fill="#698cf2"/>
  <g id="Grupo_53336" data-name="Grupo 53336" transform="translate(0 10.211)">
    <path id="Trazado_2456" data-name="Trazado 2456" d="M149.869,206.962a16.921,16.921,0,0,0-4.768-23.418,14.793,14.793,0,0,0-2.532-1.392V145.316A25.337,25.337,0,0,0,117.253,120H93.624a25.337,25.337,0,0,0-25.316,25.316v36.835a16.885,16.885,0,0,0-8.734,22.236,14.793,14.793,0,0,0,1.392,2.532,23.635,23.635,0,1,0,21.392,42.152,24.163,24.163,0,0,0,6.16-4.515,23.608,23.608,0,0,0,33.418.338l.338-.338a23.631,23.631,0,1,0,33.755-33.08A22.956,22.956,0,0,0,149.869,206.962Z" transform="translate(-37.886 -89.705)" fill="#fb8656"/>
    <path id="Trazado_2457" data-name="Trazado 2457" d="M165.266,407.708c-7.131-34.093-27.089-58.608-50.633-58.608S71.131,373.615,64,407.708Z" transform="translate(-47.122 -222.138)" fill="#ff0062"/>
    <path id="Trazado_2458" data-name="Trazado 2458" d="M73.283,416h-.97c-3.544,7.3-6.371,21.477-8.312,30.38H81.722V424.439A8.464,8.464,0,0,0,73.283,416Z" transform="translate(-47.122 -260.81)" fill="#d80758"/>
    <path id="Trazado_2459" data-name="Trazado 2459" d="M143.7,336.878l16.878,23.629,16.878-23.629L174.08,320h-27Z" transform="translate(-93.194 -205.316)" fill="#ffd4cf"/>
    <path id="Trazado_2460" data-name="Trazado 2460" d="M176.1,320h-27l-1.9,9.451,2.574,1.6a24.526,24.526,0,0,0,25.865-.042L178,329.536Z" transform="translate(-95.217 -205.316)" fill="#fbb8b0"/>
    <path id="Trazado_2461" data-name="Trazado 2461" d="M159.325,196.253h-8.439v-3.376h-.042a11.881,11.881,0,0,1-10.127-5.738L134.008,176l-.3.506a33.759,33.759,0,0,1-28.945,16.371h-7.89v3.376H88.439A8.464,8.464,0,0,0,80,204.692v6.751a8.464,8.464,0,0,0,8.439,8.439h8.439s3.8,12.658,10,16.5l8.1,4.979a16.831,16.831,0,0,0,17.806-.042l8.186-5.105c6.16-3.84,9.916-16.329,9.916-16.329h8.439a8.464,8.464,0,0,0,8.439-8.439v-6.751a8.464,8.464,0,0,0-8.439-8.439Z" transform="translate(-56.371 -122.076)" fill="#ffd4cf"/>
    <path id="Trazado_2462" data-name="Trazado 2462" d="M159.325,196.253h-8.439v-3.376h-.042a11.881,11.881,0,0,1-10.127-5.738L134.008,176l-.3.506a33.759,33.759,0,0,1-28.945,16.371h-7.89v3.376H88.439A8.464,8.464,0,0,0,80,204.692v6.751a8.464,8.464,0,0,0,8.439,8.439h8.439s3.8,12.658,10,16.5l8.1,4.979a16.831,16.831,0,0,0,17.806-.042l8.186-5.105c6.16-3.84,9.916-16.329,9.916-16.329h8.439a8.464,8.464,0,0,0,8.439-8.439v-6.751a8.464,8.464,0,0,0-8.439-8.439Z" transform="translate(-56.371 -122.076)" fill="#ffd4cf"/>
    <path id="Trazado_2463" data-name="Trazado 2463" d="M170.127,292.439c-5.7,0-10.127-3.713-10.127-8.439h6.751c0,.591,1.266,1.688,3.376,1.688s3.376-1.1,3.376-1.688h6.751C180.253,288.726,175.823,292.439,170.127,292.439Z" transform="translate(-102.616 -184.506)" fill="#d16054"/>
    <path id="Trazado_2464" data-name="Trazado 2464" d="M208,240.2h6.751v6.751H208Z" transform="translate(-130.363 -159.187)" fill="#d16054"/>
    <path id="Trazado_2465" data-name="Trazado 2465" d="M144,240.2h6.751v6.751H144Z" transform="translate(-93.367 -159.187)" fill="#d16054"/>
    <g id="Grupo_53333" data-name="Grupo 53333" transform="translate(10.253)">
      <path id="Trazado_2466" data-name="Trazado 2466" d="M48.3,48.2h6.751v6.751H48.3V48.2Z" transform="translate(-48.3 -48.2)" fill="#f2faff"/>
      <path id="Trazado_2467" data-name="Trazado 2467" d="M80.3,48.2h6.751v6.751H80.3Z" transform="translate(-66.798 -48.2)" fill="#f2faff"/>
      <path id="Trazado_2468" data-name="Trazado 2468" d="M112.3,48.2h6.751v6.751H112.3Z" transform="translate(-85.296 -48.2)" fill="#f2faff"/>
      <path id="Trazado_2469" data-name="Trazado 2469" d="M416.3,48.2h6.751v6.751H416.3Z" transform="translate(-261.026 -48.2)" fill="#f2faff"/>
      <path id="Trazado_2470" data-name="Trazado 2470" d="M448.3,48.2h6.751v6.751H448.3Z" transform="translate(-279.524 -48.2)" fill="#f2faff"/>
    </g>
    <path id="Trazado_2471" data-name="Trazado 2471" d="M119.407,288.225a3.364,3.364,0,0,0-4.135-2.321c-.042,0-.127.042-.169.042l-7.426,2.532a2.7,2.7,0,0,1-.3.084,9.243,9.243,0,0,1-11.941-5.443,9.607,9.607,0,0,1-.591-3.249v-1.983H93.162A8.49,8.49,0,0,1,88.1,276.2v3.376a16.41,16.41,0,0,0,4.641,11.561,16.136,16.136,0,0,0,16.878,3.8l7.679-2.616a3.377,3.377,0,0,0,2.11-4.093Z" transform="translate(-61.053 -179.997)" fill="#ff0062"/>
    <g id="Grupo_53334" data-name="Grupo 53334" transform="translate(121.519 30.295)">
      <path id="Trazado_2472" data-name="Trazado 2472" d="M320.439,120h43.882a8.464,8.464,0,0,1,8.439,8.439v43.882a8.464,8.464,0,0,1-8.439,8.439H320.439A8.464,8.464,0,0,1,312,172.321V128.439A8.464,8.464,0,0,1,320.439,120Z" transform="translate(-312 -120)" fill="#b3e9ff"/>
      <path id="Trazado_2473" data-name="Trazado 2473" d="M365.1,175.629s5.907-3.8,5.907-8.439v-6.751A8.464,8.464,0,0,0,362.565,152H359.19a8.464,8.464,0,0,0-8.439,8.439v6.751c0,4.641,5.907,8.439,5.907,8.439A12.641,12.641,0,0,0,344,188.287h0v10.97h33.755v-10.97A12.641,12.641,0,0,0,365.1,175.629Z" transform="translate(-330.498 -138.498)" fill="#f2faff"/>
    </g>
    <g id="Grupo_53335" data-name="Grupo 53335" transform="translate(121.519 104.557)">
      <path id="Trazado_2474" data-name="Trazado 2474" d="M320.439,296h43.882a8.464,8.464,0,0,1,8.439,8.439v43.882a8.464,8.464,0,0,1-8.439,8.439H320.439A8.464,8.464,0,0,1,312,348.321V304.439A8.464,8.464,0,0,1,320.439,296Z" transform="translate(-312 -296)" fill="#b3e9ff"/>
      <path id="Trazado_2475" data-name="Trazado 2475" d="M365.1,351.629s5.907-3.8,5.907-8.439v-6.751A8.464,8.464,0,0,0,362.565,328H359.19a8.464,8.464,0,0,0-8.439,8.439v6.751c0,4.641,5.907,8.439,5.907,8.439A12.641,12.641,0,0,0,344,364.287h0v10.97h33.755v-10.97A12.641,12.641,0,0,0,365.1,351.629Z" transform="translate(-330.498 -314.498)" fill="#f2faff"/>
    </g>
    <path id="Trazado_2476" data-name="Trazado 2476" d="M64.506,346.65a6.88,6.88,0,0,0-9.451.38L51,351.08V336.439A8.464,8.464,0,0,0,42.565,328H40.878A16.873,16.873,0,0,0,24,344.878v46.414a4.232,4.232,0,0,0,4.219,4.219H51V371.882L64.759,356.4a6.774,6.774,0,0,0,0-9.536A1.119,1.119,0,0,0,64.506,346.65Z" transform="translate(-24 -209.941)" fill="#ffd4cf"/>
    <path id="Trazado_2477" data-name="Trazado 2477" d="M24,460.658a4.232,4.232,0,0,0,4.219,4.219H51V448H24Z" transform="translate(-24 -279.308)" fill="#ff0062"/>
  </g>
</svg>
