<svg id="_02" data-name="02" xmlns="http://www.w3.org/2000/svg" width="200" height="200" viewBox="0 0 200 200">
  <path id="Trazado_2410" data-name="Trazado 2410" d="M223.03,216.278c0-.759,0-1.519-.042-2.278v-.759c0-.506-.042-1.013-.042-1.519,0-.3-.042-.591-.042-.886,0-.464-.042-.928-.084-1.35,0-.3-.042-.633-.042-.928-.042-.422-.042-.886-.084-1.308-.042-.338-.042-.633-.084-.97l-.127-1.266c-.042-.338-.042-.633-.084-.97l-.127-1.266c-.042-.3-.084-.633-.127-.928-.042-.422-.084-.844-.169-1.266-.042-.3-.084-.633-.127-.928-.042-.422-.127-.844-.169-1.266l-.127-.886c-.084-.422-.127-.886-.211-1.308-.042-.253-.084-.549-.127-.8-.084-.506-.169-.97-.253-1.477l-.127-.633c-.127-.717-.3-1.392-.422-2.11a.155.155,0,0,0-.042-.127c-.127-.675-.3-1.308-.422-1.941-.042-.211-.127-.464-.169-.675-.127-.464-.211-.928-.338-1.392-.084-.253-.127-.506-.211-.8-.127-.422-.211-.844-.338-1.224a6.167,6.167,0,0,1-.211-.844c-.127-.38-.211-.8-.338-1.181-.084-.3-.169-.549-.253-.844-.084-.338-.211-.675-.3-1.013l10.338-15.7a8.474,8.474,0,0,0-1.941-11.772,9.007,9.007,0,0,0-1.772-.97l-.084-.042a8.468,8.468,0,0,0-10.464,3.629l-3.629,6.92c0-.042-.042-.042-.042-.084-.169-.338-.38-.675-.549-.97-.127-.211-.253-.464-.38-.675-.169-.338-.38-.633-.549-.928a5.908,5.908,0,0,0-.422-.675c-.169-.3-.38-.633-.591-.928a5.5,5.5,0,0,0-.422-.633c-.211-.3-.38-.591-.591-.928a5.5,5.5,0,0,0-.422-.633c-.211-.3-.422-.633-.633-.928-.127-.211-.253-.38-.38-.591-.211-.338-.464-.633-.675-.97l-.38-.506c-.3-.38-.549-.759-.844-1.1-.084-.084-.127-.169-.211-.253h0c-5.992-7.679-13.122-13.544-20.928-17.046l.169-.253-3.08-15.316,3.207-1.983a20.37,20.37,0,0,0,10.127-17.764v1.477h8.439a8.464,8.464,0,0,0,8.439-8.439V86.321a8.462,8.462,0,0,0-6.751-8.27V59.316A25.337,25.337,0,0,0,177.46,34H153.831a25.337,25.337,0,0,0-25.316,25.316V78.051a8.462,8.462,0,0,0-6.751,8.27v6.751a8.464,8.464,0,0,0,8.439,8.439h8.439V99.949a21.117,21.117,0,0,0,9.916,17.89l3.291,2.068-1.6,7.975h0l-1.477,7.384.169.253a48.582,48.582,0,0,0-6.92,3.84,4.234,4.234,0,0,0-4.219-4.093H98.135l-2.954-14.81a20.253,20.253,0,1,0-14.346,0l-2.954,14.81H38.219A4.232,4.232,0,0,0,34,139.485v59.072a4.232,4.232,0,0,0,4.219,4.219H71.764l-.633,3.376v10.127H34v13.5H229.781v-13.5Z" transform="translate(-29.781 -29.781)" opacity="0.05"/>
  <path id="Trazado_2411" data-name="Trazado 2411" d="M322.262,78.008V49.316A25.337,25.337,0,0,0,296.945,24H273.316A25.337,25.337,0,0,0,248,49.316V78.008Z" transform="translate(-153.485 -24)" fill="#fb8656"/>
  <path id="Trazado_2412" data-name="Trazado 2412" d="M248.135,256c31.688,0,57.384,37.764,57.384,84.388v3.376H184v-3.376a126.09,126.09,0,0,1,.717-13.249c.253-2.236,7.3-4.473,7.637-6.667C198.473,283.468,221.131,256,248.135,256Z" transform="translate(-116.489 -158.11)" fill="#ff0062"/>
  <path id="Trazado_2413" data-name="Trazado 2413" d="M350.03,368.713c0-25.443-7.637-48.27-19.747-63.713-7.553,8.819-17.553,15.992-27.89,21.477-8.565,4.557-17.637,8.4-25.021,14.684A47.866,47.866,0,0,0,261,372.089h89.03Z" transform="translate(-161 -186.435)" fill="#d80758"/>
  <path id="Trazado_2414" data-name="Trazado 2414" d="M296,240.878l16.878,23.629,16.878-23.629L326.38,224h-27Z" transform="translate(-181.232 -139.612)" fill="#ffd4cf"/>
  <path id="Trazado_2415" data-name="Trazado 2415" d="M328.4,224h-27l-1.9,9.451,2.489,1.561a24.437,24.437,0,0,0,25.865.042l2.489-1.519Z" transform="translate(-183.255 -139.612)" fill="#fbb8b0"/>
  <path id="Trazado_2416" data-name="Trazado 2416" d="M311.325,100.253h-8.439V96.878H295a33.759,33.759,0,0,1-28.945-16.371l-.3-.506L248.878,96.878v3.376h-8.439A8.464,8.464,0,0,0,232,108.692v6.751a8.464,8.464,0,0,0,8.439,8.439h8.439v-1.561a21.117,21.117,0,0,0,9.916,17.89l8.186,5.105a16.831,16.831,0,0,0,17.806.042l8.059-5.021a20.956,20.956,0,0,0,10.042-17.933v1.477h8.439a8.464,8.464,0,0,0,8.439-8.439v-6.751a8.464,8.464,0,0,0-8.439-8.439Z" transform="translate(-144.236 -56.371)" fill="#ffd4cf"/>
  <g id="Grupo_53328" data-name="Grupo 53328" transform="translate(0 47.257)">
    <path id="Trazado_2417" data-name="Trazado 2417" d="M144.506,156.253A20.253,20.253,0,1,0,117.08,175.2l-2.954,14.81H134.38l-2.954-14.81A20.228,20.228,0,0,0,144.506,156.253Z" transform="translate(-70.245 -136)" fill="#b3e9ff"/>
    <path id="Trazado_2418" data-name="Trazado 2418" d="M410.127,355.882l25.443-38.523a8.474,8.474,0,0,0-1.941-11.772,9,9,0,0,0-1.772-.97l-.084-.042a8.468,8.468,0,0,0-10.464,3.629L400,349.131Z" transform="translate(-241.35 -233.097)" fill="#fb8656"/>
    <path id="Trazado_2419" data-name="Trazado 2419" d="M360,428.253v3.376h33.755v-6.751a16.878,16.878,0,0,0-33.755,0Z" transform="translate(-218.228 -293.232)" fill="#ffd4cf"/>
    <path id="Trazado_2420" data-name="Trazado 2420" d="M127.8,331.511H28.219A4.232,4.232,0,0,1,24,327.291V268.219A4.232,4.232,0,0,1,28.219,264H127.8a4.232,4.232,0,0,1,4.219,4.219v59.072A4.232,4.232,0,0,1,127.8,331.511Z" transform="translate(-24 -209.992)" fill="#698cf2"/>
    <path id="Trazado_2421" data-name="Trazado 2421" d="M97.5,363l-5.274-23.713A4.2,4.2,0,0,0,88.093,336H67.84a4.285,4.285,0,0,0-4.135,3.291L58.515,363H24v5.907a4.232,4.232,0,0,0,4.219,4.219H127.8a4.232,4.232,0,0,0,4.219-4.219V363Z" transform="translate(-24 -251.612)" fill="#567ae2"/>
    <circle id="Elipse_5463" data-name="Elipse 5463" cx="13.5" cy="13.5" r="13.5" transform="translate(40.781 13.742)" fill="#fb8656"/>
    <path id="Trazado_2422" data-name="Trazado 2422" d="M112,394.633h33.755v-13.5L139,344H118.751L112,381.131Z" transform="translate(-74.869 -256.236)" fill="#698cf2"/>
    <path id="Trazado_2423" data-name="Trazado 2423" d="M219.781,469.5H24V456H219.781Z" transform="translate(-24 -320.979)" fill="#567ae2"/>
  </g>
  <g id="Grupo_53329" data-name="Grupo 53329" transform="translate(114.768 50.633)">
    <path id="Trazado_2424" data-name="Trazado 2424" d="M360,144h6.751v6.751H360Z" transform="translate(-332.996 -144)" fill="#d16054"/>
    <path id="Trazado_2425" data-name="Trazado 2425" d="M296,144h6.751v6.751H296Z" transform="translate(-296 -144)" fill="#d16054"/>
    <path id="Trazado_2426" data-name="Trazado 2426" d="M322.127,204.439c-5.7,0-10.127-3.713-10.127-8.439h6.751c0,.591,1.266,1.688,3.376,1.688s3.376-1.1,3.376-1.688h6.751C332.253,200.726,327.823,204.439,322.127,204.439Z" transform="translate(-305.249 -174.059)" fill="#d16054"/>
  </g>
  <path id="Trazado_2427" data-name="Trazado 2427" d="M144,192h6.751v6.751H144Z" transform="translate(-93.367 -121.114)" fill="#fffdfa"/>
  <path id="Trazado_2428" data-name="Trazado 2428" d="M104,296h23.629v6.751H104Z" transform="translate(-70.245 -181.232)" fill="#f2faff"/>
  <path id="Trazado_2429" data-name="Trazado 2429" d="M176,296h10.127v6.751H176Z" transform="translate(-111.865 -181.232)" fill="#f2faff"/>
</svg>
